HIERARCHY
ROOT root
{
	OFFSET 0.000000 0.000000 0.000000
	CHANNELS 6 Xposition Yposition Zposition Zrotation Yrotation Xrotation
	JOINT lhip
	{
		OFFSET 0.058581 -0.082280 -0.017664
		CHANNELS 3 Zrotation Yrotation Xrotation
		JOINT lknee
		{
			OFFSET 0.043451 -0.386469 0.008037
			CHANNELS 3 Zrotation Yrotation Xrotation
			JOINT lankle
			{
				OFFSET -0.014790 -0.426874 -0.037428
				CHANNELS 3 Zrotation Yrotation Xrotation
				JOINT ltoe
				{
					OFFSET 0.041054 -0.060286 0.122042
					CHANNELS 3 Zrotation Yrotation Xrotation
					End Site
					{
						OFFSET 0.000000 0.000000 0.000000
					}
				}
			}
		}
	}
	JOINT rhip
	{
		OFFSET -0.060310 -0.090513 -0.013543
		CHANNELS 3 Zrotation Yrotation Xrotation
		JOINT rknee
		{
			OFFSET -0.043257 -0.383688 -0.004843
			CHANNELS 3 Zrotation Yrotation Xrotation
			JOINT rankle
			{
				OFFSET 0.019056 -0.420046 -0.034562
				CHANNELS 3 Zrotation Yrotation Xrotation
				JOINT rtoe
				{
					OFFSET -0.034840 -0.062106 0.130323
					CHANNELS 3 Zrotation Yrotation Xrotation
					End Site
					{
						OFFSET 0.000000 0.000000 0.000000
					}
				}
			}
		}
	}
	JOINT lowerback
	{
		OFFSET 0.004439 0.124404 -0.038385
		CHANNELS 3 Zrotation Yrotation Xrotation
		JOINT upperback
		{
			OFFSET 0.004488 0.137956 0.026820
			CHANNELS 3 Zrotation Yrotation Xrotation
			JOINT chest
			{
				OFFSET -0.002265 0.056032 0.002855
				CHANNELS 3 Zrotation Yrotation Xrotation
				JOINT lowerneck
				{
					OFFSET -0.013390 0.211636 -0.033468
					CHANNELS 3 Zrotation Yrotation Xrotation
					JOINT upperneck
					{
						OFFSET 0.010113 0.088937 0.050410
						CHANNELS 3 Zrotation Yrotation Xrotation
						End Site
						{
							OFFSET 0.000000 0.000000 0.000000
						}
					}
				}
				JOINT lclavicle
				{
					OFFSET 0.071702 0.114000 -0.018898
					CHANNELS 3 Zrotation Yrotation Xrotation
					JOINT lshoulder
					{
						OFFSET 0.122921 0.045205 -0.019046
						CHANNELS 3 Zrotation Yrotation Xrotation
						JOINT lelbow
						{
							OFFSET 0.255332 -0.015649 -0.022946
							CHANNELS 3 Zrotation Yrotation Xrotation
							JOINT lwrist
							{
								OFFSET 0.265709 0.012698 -0.007375
								CHANNELS 3 Zrotation Yrotation Xrotation
								End Site
								{
									OFFSET 0.000000 0.000000 0.000000
								}
							}
						}
					}
				}
				JOINT rclavicle
				{
					OFFSET -0.082954 0.112472 -0.023707
					CHANNELS 3 Zrotation Yrotation Xrotation
					JOINT rshoulder
					{
						OFFSET -0.113228 0.046853 -0.008472
						CHANNELS 3 Zrotation Yrotation Xrotation
						JOINT relbow
						{
							OFFSET -0.260127 -0.014369 -0.031269
							CHANNELS 3 Zrotation Yrotation Xrotation
							JOINT rwrist
							{
								OFFSET -0.269108 0.006794 -0.006027
								CHANNELS 3 Zrotation Yrotation Xrotation
								End Site
								{
									OFFSET 0.000000 0.000000 0.000000
								}
							}
						}
					}
				}
			}
		}
	}
}
MOTION
Frames: 17
Frame Time: 0.033333
0.481904 0.939324 1.032796 -121.354197 2.589865 91.731569 -9.386347 -7.826927 4.376917 3.949893 -17.114422 -0.529465 6.743732 17.919299 -16.380002 0.000000 -0.000000 0.000000 0.766932 4.965623 -20.838115 -4.345994 2.656803 19.223314 -0.202647 -14.505036 -16.212685 0.000000 -0.000000 0.000000 1.969620 0.307065 1.804395 1.705660 0.429222 10.460668 -1.127530 2.638774 -6.307219 -1.574200 8.299184 -0.038177 2.259722 9.234951 22.545467 -24.796483 3.883838 -4.659052 -59.999164 -4.350328 19.720042 10.640133 -27.869865 -2.545400 -1.664704 -23.233237 8.484548 23.005213 -0.037645 2.075721 56.663116 -1.385319 15.725512 -10.443755 19.532843 -7.824627 -0.219775 15.066040 -0.886771 
0.467701 0.953642 1.031292 -119.743058 2.378876 91.999679 -9.161700 -7.130840 5.502592 3.995620 -17.755760 -0.347354 6.077881 16.724136 -17.936489 0.000000 -0.000000 0.000000 0.310598 3.785485 -20.453687 -4.970783 4.286320 9.266256 0.297124 -12.931276 -15.906846 0.000000 -0.000000 0.000000 2.044002 0.670516 1.187080 1.737633 0.573659 11.376059 -1.185840 2.864766 -6.709610 -1.246791 8.170485 -0.375268 1.654479 8.276608 22.692335 -24.686784 4.178257 -5.122120 -60.327668 -5.089283 20.751191 10.198082 -27.786604 -2.616548 -1.423837 -24.115902 8.374963 23.336001 -0.158840 2.015999 56.424049 -1.185257 15.736278 -10.369668 17.766131 -8.418396 -0.377610 15.190051 -0.047836 
0.453237 0.968999 1.029282 -117.932998 2.372238 92.830980 -8.246806 -6.936904 5.515444 3.277896 -18.404273 0.923711 5.463628 15.501235 -19.746871 0.000000 -0.000000 0.000000 0.039307 2.900399 -20.587288 -5.439142 5.732006 1.538977 0.664341 -11.363086 -14.676853 0.000000 -0.000000 0.000000 2.155096 0.879969 0.450803 1.934775 0.413801 11.346128 -1.143234 2.902074 -6.875994 -1.076383 8.225252 -0.469371 1.330191 7.828184 22.609734 -24.995424 4.536451 -4.914778 -60.388011 -5.296244 20.798917 10.143025 -27.949821 -3.212096 -2.687538 -24.221045 9.955600 23.967978 -0.323581 2.384389 55.670160 -1.100088 15.087194 -11.157980 16.787212 -7.840084 2.091928 14.872642 3.874524 
0.437001 0.986613 1.026975 -116.389574 2.358450 92.915106 -7.502315 -6.809921 6.481209 2.731699 -19.738741 2.239686 4.972760 15.268696 -21.142754 0.000000 -0.000000 0.000000 -0.114074 2.825708 -20.224906 -5.397155 6.759998 -1.544259 0.995242 -10.657007 -15.001488 0.000000 -0.000000 0.000000 2.027576 0.868387 0.286804 2.166389 0.373460 11.197376 -1.031298 2.650923 -6.734313 -0.971872 8.144888 -0.828556 1.263104 8.049068 22.842493 -25.263310 4.828328 -5.014144 -60.240360 -4.970882 20.984312 9.942552 -27.763132 -3.243204 -0.639043 -24.567635 8.245232 24.448443 -0.357185 2.141945 54.905407 -0.893125 15.410130 -10.271557 16.674964 -7.669330 0.921094 14.912382 2.510266 
0.419580 1.005917 1.025018 -114.639113 2.345716 92.653798 -6.599505 -6.738318 7.502866 1.612785 -21.063998 4.534873 4.764702 15.300388 -22.523175 0.000000 -0.000000 0.000000 -0.023848 3.319590 -19.898391 -5.100160 6.378759 0.900180 0.833722 -10.815497 -15.517237 0.000000 -0.000000 0.000000 1.717165 0.430066 0.069817 2.470634 0.075120 11.604321 -0.939080 2.271386 -6.784099 -0.817279 8.245357 -0.991242 1.029815 8.268007 22.811623 -25.083639 4.842828 -4.297287 -60.259668 -5.208614 20.105133 10.427471 -27.243419 -4.596691 -2.866554 -23.423889 8.595878 24.511691 -0.079101 2.353156 55.049356 -0.384499 15.204223 -10.745103 16.789258 -7.483371 2.221161 14.400178 2.867340 
0.400647 1.026333 1.022133 -112.807738 2.395138 92.530488 -5.564684 -7.018866 8.713683 0.625439 -22.271735 6.553882 4.243656 15.722742 -23.816770 0.000000 -0.000000 0.000000 0.436490 4.090596 -19.616594 -4.645587 5.863835 5.271781 0.317353 -11.300410 -16.023644 0.000000 -0.000000 0.000000 1.397908 -0.324993 -0.503146 2.695217 -0.392261 11.890637 -0.886327 2.048637 -6.726690 -0.563680 8.818866 -1.239453 0.929108 8.301729 23.011267 -24.611249 4.898594 -4.008210 -60.211971 -4.628888 19.534617 10.498049 -26.698703 -4.102339 -3.881298 -22.917973 9.123889 24.525720 0.195082 2.117850 55.060274 -0.434431 15.046357 -10.376057 18.055191 -7.619740 1.937010 14.430819 1.896657 
0.380730 1.047963 1.020260 -111.518086 2.734768 92.499330 -4.203844 -7.241694 9.317510 -0.707668 -22.747707 9.621342 4.066635 16.086906 -24.345380 0.000000 -0.000000 0.000000 1.228029 4.583363 -19.392952 -4.190423 5.441853 8.026857 -0.307605 -12.077897 -13.757303 0.000000 -0.000000 0.000000 1.361118 -0.665396 -0.785716 3.082182 -0.610007 11.663737 -0.957579 1.698593 -6.948147 -0.407435 9.395579 -1.233213 0.481579 8.435673 24.043542 -24.697074 5.240845 -3.704055 -59.506244 -4.116842 19.109955 9.734299 -25.206361 -3.295404 -4.548770 -22.477801 9.570581 25.316693 -0.105721 1.697863 54.133816 -0.594274 14.783063 -9.909175 19.326700 -7.078484 1.885988 14.172613 2.446001 
0.359736 1.069317 1.020206 -110.662726 3.081276 92.504460 -2.950116 -7.535135 9.272281 -2.828941 -22.544428 13.968958 3.538453 16.389908 -23.645507 0.000000 -0.000000 0.000000 1.903267 5.032267 -18.763887 -3.135742 4.697916 11.041840 -0.888543 -12.287782 -13.241092 0.000000 -0.000000 0.000000 1.359043 -0.867534 -1.120648 3.208990 -0.601551 11.039603 -1.085102 1.539437 -6.624968 0.084373 9.730557 -1.294009 0.150680 8.561944 24.520289 -24.918818 6.173412 -4.090708 -59.016845 -3.497292 18.635972 10.025086 -23.337402 -2.578898 -4.766467 -22.143473 10.454883 26.095515 -0.501002 1.004478 53.520080 -0.393587 14.888547 -9.508216 20.038604 -6.396560 2.168997 14.536974 2.404619 
0.339218 1.090311 1.021491 -110.347349 3.272388 92.443545 -1.589903 -7.686390 7.576959 -6.291732 -20.113750 20.986724 2.945624 15.787308 -21.575980 0.000000 -0.000000 0.000000 2.727217 5.438543 -17.423714 -2.477598 3.890079 12.476675 -1.589120 -12.429330 -14.058135 0.000000 -0.000000 0.000000 1.081886 -0.664905 -1.210437 3.218081 -0.577977 10.277945 -0.949031 1.494875 -6.259473 0.559474 10.528786 -0.950255 -0.246745 8.573732 24.425108 -24.241351 6.983268 -4.147144 -59.793349 -3.070847 17.940859 10.621017 -21.561807 -2.838376 -4.223781 -22.477843 10.342756 25.840819 -0.572504 0.776839 54.052360 0.140901 14.980599 -9.382711 20.387356 -5.939011 1.160370 14.573380 2.062557 
0.319152 1.109907 1.023238 -110.077951 3.315957 92.235175 0.133004 -7.018785 3.904829 -9.458352 -14.320476 30.373000 2.262002 14.049665 -16.212376 0.000000 -0.000000 0.000000 3.811863 5.117430 -14.923296 -2.356310 4.078068 11.763228 -3.013508 -12.265602 -15.463400 0.000000 -0.000000 0.000000 0.933864 0.216676 -1.090880 2.872150 -0.718033 9.523441 -0.771816 1.535812 -5.640640 1.022649 11.212870 -0.644068 -0.764364 8.100515 24.251137 -23.582349 6.577862 -3.770860 -60.571242 -2.753150 17.079615 11.535605 -19.773657 -4.885154 -4.323202 -21.499955 9.744747 25.396510 0.070565 0.964371 54.899297 0.369520 14.871943 -9.940983 21.225156 -7.034375 0.764300 14.246670 1.464627 
0.299965 1.127972 1.023675 -110.319653 3.037555 92.011063 1.470565 -6.228807 -0.841811 -10.710417 -7.552797 40.094789 1.170990 11.012976 -7.866642 0.000000 -0.000000 0.000000 4.467478 4.485338 -12.170808 -2.504409 3.802095 10.173335 -4.351946 -11.649721 -16.379987 0.000000 -0.000000 0.000000 0.754558 1.665417 -0.693415 2.258763 -0.414036 9.230539 -0.729087 1.700165 -5.558302 1.471828 12.004414 -0.046620 -1.080609 7.273757 22.858383 -22.727406 6.328483 -3.533309 -61.157550 -2.762330 16.801823 11.828917 -18.952345 -5.200953 -5.328903 -20.941121 10.002905 24.728615 0.384659 1.339980 55.774373 0.892012 14.611462 -10.212147 21.704262 -7.667153 0.837433 14.315498 1.596608 
0.281680 1.143572 1.023418 -110.281885 3.161987 91.724387 2.354922 -5.564022 -5.994856 -11.088488 -2.432869 49.131499 0.426473 12.837710 -7.682793 0.000000 -0.000000 0.000000 5.445999 4.050280 -9.614494 -2.588812 4.055594 9.117626 -4.942530 -11.966917 -17.505343 0.000000 -0.000000 0.000000 1.333197 3.150402 -0.019382 1.671334 -0.242803 8.837712 -0.825415 2.055709 -5.235829 1.667917 11.899261 -0.345989 -1.474666 6.465187 22.125712 -23.288377 5.884642 -3.562312 -60.475841 -2.858194 16.340834 11.879236 -19.108266 -5.312602 -5.830158 -21.467539 10.471825 24.370818 1.406105 1.450224 55.424535 0.748757 14.035589 -9.694600 22.508651 -7.358107 0.899800 14.486562 1.041817 
0.263191 1.157148 1.023553 -110.579248 2.756943 91.509796 2.233163 -5.051449 -11.267345 -9.537012 1.847886 55.746469 1.805088 13.694493 -8.420192 0.000000 -0.000000 0.000000 5.689631 3.547433 -7.530236 -2.741501 4.377898 8.603834 -4.575923 -11.734145 -18.436981 0.000000 -0.000000 0.000000 1.379238 4.615363 0.641898 1.142012 0.119777 8.663321 -1.084288 2.511663 -5.319615 1.940661 11.624528 -0.303717 -1.637840 6.026026 21.890911 -23.934764 6.128480 -3.945194 -59.717762 -2.809602 16.120790 11.764495 -20.031442 -5.729560 -6.650337 -20.834506 11.905701 24.629132 1.986916 2.279744 54.475145 1.713684 13.948738 -9.470919 22.312090 -7.212003 1.040637 14.345537 2.303895 
0.244985 1.169422 1.024850 -110.974198 2.234826 91.248934 1.756908 -5.228365 -15.692350 -8.593654 5.159860 58.578406 2.695739 14.103044 -9.899288 0.000000 -0.000000 0.000000 5.832691 3.130820 -5.646396 -3.007405 4.865477 8.431972 -4.302138 -11.999640 -19.574031 0.000000 -0.000000 0.000000 1.241489 5.977657 1.441825 0.608713 0.398530 8.669865 -1.265401 2.967344 -5.801809 2.283546 11.126532 0.076949 -1.876932 5.634928 21.671736 -24.314043 6.568515 -4.502936 -59.568697 -2.386190 16.286036 12.209112 -20.814197 -6.164690 -6.355144 -21.280955 12.054700 24.509804 2.497359 2.320497 54.158678 2.494559 14.669616 -9.620292 21.000752 -6.830711 0.104173 14.490805 2.766826 
0.226988 1.181008 1.025939 -111.185775 1.692525 90.833011 1.291438 -5.874837 -19.464357 -9.286787 6.822715 58.688722 2.861941 13.220331 -10.676693 0.000000 -0.000000 0.000000 5.819740 2.552181 -3.452240 -3.381700 5.433731 7.982737 -4.451839 -12.099262 -20.396616 0.000000 -0.000000 0.000000 1.056616 7.294034 2.061701 0.091988 0.417176 8.824678 -1.376847 3.380098 -5.698388 2.359322 10.600819 0.138487 -1.869980 5.245808 21.315351 -23.929468 6.495175 -4.822032 -60.387455 -2.131587 16.505762 13.315965 -21.398180 -8.035335 -5.903953 -20.924187 11.042132 24.230354 3.206719 2.385128 54.281759 3.622814 15.302303 -10.401544 19.460323 -7.169760 -0.373033 14.246273 2.591612 
0.207878 1.191228 1.026787 -111.773215 0.981217 90.361027 0.680896 -5.861972 -22.248976 -10.535274 7.738481 55.061396 1.684841 12.269032 -13.929183 0.000000 -0.000000 0.000000 5.338244 1.803600 -1.295781 -3.458606 6.042435 7.784078 -3.535227 -11.858202 -21.585041 0.000000 -0.000000 0.000000 0.808814 8.601951 2.772907 -0.381943 0.640975 9.042316 -1.484201 3.744483 -5.859025 2.425677 10.346823 0.019767 -2.110661 4.969968 21.143858 -23.857054 6.808654 -4.925825 -60.817685 -2.151861 16.623540 13.895151 -21.558582 -9.102768 -6.923255 -20.607363 11.136672 23.916965 3.646655 2.639978 54.238543 4.541962 15.541170 -11.089161 18.833195 -7.849831 -0.216438 14.037409 1.963980 
0.189173 1.200654 1.026261 -112.228348 0.542292 89.920798 0.275193 -5.983552 -24.190157 -10.275629 8.202522 49.296886 3.169088 12.476577 -11.328726 0.000000 -0.000000 0.000000 5.123849 0.967617 1.015560 -3.782813 6.781919 7.090676 -3.303498 -11.644163 -22.263703 0.000000 -0.000000 0.000000 1.055940 9.716586 3.778379 -1.022083 0.840145 8.907986 -1.648476 4.203346 -5.774900 2.641048 10.210680 -0.645447 -2.403847 4.503973 21.531845 -23.777028 6.406438 -5.451549 -60.952688 -1.473008 16.910401 14.008323 -22.053398 -8.598198 -5.723889 -21.260153 10.056788 23.736980 4.142302 2.737042 54.131790 5.104516 15.627172 -11.798189 18.838991 -9.111413 -1.260904 13.785289 1.477118 
